<?xml version="1.0" encoding="UTF-8"?><svg id="Layer_2" xmlns="http://www.w3.org/2000/svg" xmlns:xlink="http://www.w3.org/1999/xlink" viewBox="0 0 736.28 388.17"><defs><style>.cls-1{fill:url(#linear-gradient-2);}.cls-2{fill:#1d1d1b;}.cls-3{fill:#fff;}.cls-4{mask:url(#mask);}.cls-5{fill:url(#linear-gradient);}</style><linearGradient id="linear-gradient" x1="1201.87" y1="1718.38" x2="1346.41" y2="1718.38" gradientTransform="translate(-920.8796 -1252.9367) rotate(-8.4432)" gradientUnits="userSpaceOnUse"><stop offset="0" stop-color="#dc303c"/><stop offset="1" stop-color="#ea543a"/></linearGradient><mask id="mask" x="382.57" y="0" width="403.17" height="439.71" maskUnits="userSpaceOnUse"><path class="cls-5" d="M675.24,347.35c-3.82-9.98-8.79-19.34-14.69-27.92-5.77-8.41-12.45-16.09-19.89-22.91-7.93-7.32-16.76-13.71-26.23-18.95t-.05-.04c-4.02-2.22-8.17-4.24-12.43-6.06-.02,0-.02-.02-.04-.02-5.72-3.17-11.19-6.76-16.39-10.72-63.29-17.54-79.75-98.07-79.93-103.65-5.45,4.02,4.76-4.75,0,0-.23,7.9.24,15.94,1.44,24.03,4.72,31.79,20.14,59.35,42.11,79.55,7.02,6.5,14.73,12.24,22.99,17.08,5.07,3,10.32,5.67,15.76,7.97,6.32,2.7,12.9,4.95,19.63,6.65,17.49,7.44,33.22,18.51,46.14,32.4,6.82,7.3,12.83,15.4,17.92,24.14.29.49.57.98.84,1.47,2.4,4.23,4.56,8.61,6.49,13.12.41-.27.81-.57,1.19-.86-1.07-4.17-2.31-8.26-3.74-12.25-.35-1.04-.73-2.04-1.11-3.05Z"/><rect class="cls-2" x="382.57" y="36.54" width="403.17" height="403.17"/><path class="cls-2" d="M685.36,387.64c-65.65-3.57-131.29-7.13-196.94-10.7,9.92-80.62,12.46-161.72,7.57-242.8,60.6-3.29,121.19-6.59,181.79-9.88,10.56,87.46,13.11,175.46,7.57,263.38Z"/><path class="cls-3" d="M558.74,292.55c-11.85-.2-23.71-.4-35.56-.59-.41,7.85-.87,15.69-1.39,23.54,11.94.32,23.88.64,35.82.97,16.17.44,32.34.87,48.51,1.31l19.78.53c1.45-44.43.85-88.82-1.8-133.19l-65.49,1.92c1.35,35.18,1.4,70.34.15,105.52Z"/><path class="cls-3" d="M523.48,285.64c9.74.14,19.47.27,29.21.41,1.15-35.02,1.01-70.03-.43-105.04,11.55-.37,23.09-.74,34.64-1.11-.38-6.95-.82-13.89-1.32-20.84-11.46.47-22.92.95-34.39,1.42-9.34.39-18.67.77-28.01,1.16-.11,0-.16,0-.27.01.34,6.76.62,13.52.85,20.28.11,0,.16,0,.27,0,1.09,34.59.9,69.15-.56,103.73Z"/><path class="cls-3" d="M627.41,157.34c-11.7.48-23.4.96-35.09,1.45.51,6.96.96,13.93,1.37,20.9,11.78-.38,23.57-.76,35.35-1.14,3.22,48.81,3.96,97.64,2.22,146.52-36.73-1.09-73.46-2.18-110.18-3.27-.65,8.94-1.4,17.87-2.24,26.79,47.38,1.96,94.75,3.92,142.13,5.88.4-8.48.75-16.96,1.04-25.44.04-1.22.06-1.83.09-3.05,1.32-49.52.12-98.98-3.59-148.38-.56-7.16-1.17-14.32-1.84-21.47-9.75.4-19.5.8-29.25,1.21Z"/></mask><linearGradient id="linear-gradient-2" x1="1219.48" y1="1630.86" x2="1428.63" y2="1661.9" gradientTransform="translate(-920.8796 -1252.9367) rotate(-8.4432)" gradientUnits="userSpaceOnUse"><stop offset="0" stop-color="#f4a500"/><stop offset=".47" stop-color="#ef7d1c"/><stop offset="1" stop-color="#ea543a"/></linearGradient></defs><g id="Layer_1-2"><path class="cls-3" d="M59.73,221.64l-19.91,7.05v-46.59l-36.64-1.91,5.58-17.12,50.97,3.61v54.96ZM26.59,221.64l-19.36,7.05v-35.93l19.36-5.14v34.02Z"/><path class="cls-3" d="M122.24,166.78l-4.48,17.01-5.36-.22v39.1l-18.81,6.02v-45.88l-27.34-1.8,5.69-17.28,50.31,3.06Z"/><path class="cls-3" d="M156.14,221.96l-19.14,6.4v-46.38l-11.65-1.8,5.69-17.01,25.1,3.94v54.85Z"/><path class="cls-3" d="M219.47,221.64l-19.91,7.05v-46.59l-36.64-1.91,5.58-17.12,50.97,3.61v54.96ZM186.33,221.64l-19.36,7.05v-35.93l19.36-5.14v34.02Z"/><path class="cls-3" d="M256.99,167.11l-1.91,31.34-17.55,5.25.11-21.82-11.65-1.91,5.69-16.9,25.32,4.05Z"/><path class="cls-3" d="M340.77,243.02l-18.81,8.42v-69.12l-14.49-.77,5.2,19.47-17.83,7.44-6.18-23.08,6.29-4.59-9.52-.6,5.96-17.01,49.38,3.72v76.12Z"/><path class="cls-3" d="M415.64,166.67l-9.84,50.37-37.62,13.12-14.55-44.35,6.62-4.92-13.02-.6,5.69-17.12,62.73,3.5ZM393.16,182.53l-20.62-.66,7.38,26.8,10.06-4.16,3.17-21.98Z"/><path class="cls-3" d="M449.87,221.96l-19.14,6.4v-46.38l-11.65-1.8,5.69-17.01,25.1,3.94v54.85Z"/><path class="cls-3" d="M487.11,167.11l-1.91,31.34-17.55,5.25.11-21.82-11.65-1.91,5.69-16.9,25.32,4.05Z"/><path class="cls-3" d="M24.56,285.06l-20.72,1.53v-22.71l2.94-2.06-4.62-.29,1.36-4.07,21.03.93v26.65ZM20.35,281.35v-19.02l-12.25-.43v20.07l12.25-.62Z"/><path class="cls-3" d="M37.53,258.36l-.53,12.63-3.97,2.42.05-11.51-4.95-.69,1.41-4.31,7.99,1.46Z"/><path class="cls-3" d="M62.58,258.27l-1.12,4.02-2.66-.19v22.68l-4.07,1.41v-24.09l-13.38-.55,1.41-4.26,19.81.98Z"/><path class="cls-3" d="M74.95,284.44l-4.31,1.56v-23.95l-5.24-.79,1.41-4.31,8.13,1.41v26.08Z"/><path class="cls-3" d="M102.14,279.73l-1.75,5-12.2,1.27,1.22-4.45,8.66-.88-1.41-18.62-8.23-.31-4.57,23.28-4.45,1.17,4.57-23.11,2.25-1.44-6.87-.24,1.32-4.16,20,.93,1.46,21.56Z"/><path class="cls-3" d="M126.09,258.36l-4.47,20.89-10.1,7.49-1.03-4.07,7.42-5.65,2.82-14.83-15.07-.6-1.58-13.14,4.31-.93,1.08,10.1,16.63.74Z"/><path class="cls-3" d="M153.58,284.27l-4.31,1.77v-23.76l-11.68-.6,1.77,18.92-1.46,4.59-8.88,1.34,1.03-4.47,4.86-.77-1.53-17.94,2.7-1.67-6.17-.29,1.41-4.26,22.25,1.12v26.01Z"/><path class="cls-3" d="M177.75,284.44l-4.21,1.79v-24.33l-15.89-.5,1.36-4.21,18.73.89v26.37ZM162.89,284.49l-4.12,1.7v-15.96l4.12-1.44v15.7Z"/><path class="cls-3" d="M208.64,284.49l-3.68,1.84-1.72-7.25-9.4,7.71-1.08-4.76,9.45-7.44-2.94-12.85-5.43-.72,1.41-4.28,7.61,1.1,5.79,26.65Z"/><path class="cls-3" d="M220.65,284.44l-4.31,1.56v-23.95l-5.24-.79,1.41-4.31,8.13,1.41v26.08Z"/><path class="cls-3" d="M237.35,259.06l-1.08,4.31-4.02-.84,2.94,21.51-4.07,2.01-2.94-21.75,3.18-1.96-6.41-1.22,1.51-4.26,10.89,2.2Z"/><path class="cls-3" d="M249.08,258.36l-.53,12.63-3.97,2.42.05-11.51-4.95-.69,1.41-4.31,7.99,1.46Z"/><path class="cls-3" d="M275.78,279.73l-1.75,5-12.2,1.27,1.22-4.45,8.66-.88-1.41-18.62-8.23-.31-4.57,23.28-4.45,1.17,4.57-23.11,2.25-1.44-6.87-.24,1.32-4.16,20,.93,1.46,21.56Z"/><path class="cls-3" d="M299.73,258.36l-4.47,20.89-10.1,7.49-1.03-4.07,7.42-5.65,2.82-14.83-15.07-.6-1.58-13.14,4.31-.93,1.08,10.1,16.63.74Z"/><path class="cls-3" d="M344.69,258.82l-7.27,22.78-15.38,5.72-6.27-25.31-3.33-.6,1.58-4.31,5.77,1.27,3.68,16.32,4.31-17.35,4.31,1.17-4.26,15.79-4.07,1.56,1.36,5.89,8.97-3.23,5.05-16.46-3.42-.65,1.7-4.26,7.27,1.67Z"/><path class="cls-3" d="M364.63,284.49l-4.21,1.75v-23.95l-13.52-.74,1.36-4.16,16.37,1.17v25.94Z"/><path class="cls-3" d="M389.92,258.27l-1.12,4.02-2.66-.19v22.68l-4.07,1.41v-24.09l-13.38-.55,1.41-4.26,19.81.98Z"/><path class="cls-3" d="M415.62,279.73l-1.75,5-12.2,1.27,1.22-4.45,8.66-.88-1.41-18.62-8.23-.31-4.57,23.28-4.45,1.17,4.57-23.11,2.25-1.44-6.87-.24,1.32-4.16,20,.93,1.46,21.56Z"/><path class="cls-3" d="M454.4,284.27l-4.31,1.77v-23.76l-11.68-.6,1.77,18.92-1.46,4.59-8.88,1.34,1.03-4.47,4.86-.77-1.53-17.94,2.7-1.67-6.17-.29,1.41-4.26,22.25,1.12v26.01Z"/><path class="cls-3" d="M467.37,258.36l-.53,12.63-3.97,2.42.05-11.51-4.95-.69,1.41-4.31,7.99,1.46Z"/><path class="cls-3" d="M492.47,281.09l-1.48,4.28-20.48,1.08,1.32-4.28,12.8-.48-.6-19.79-12.82-.55,1.36-4.12,15.72.84.6,23.16,3.59-.14Z"/><path class="cls-3" d="M22.01,309.96l-4.47,20.89-10.1,7.49-1.03-4.07,7.42-5.65,2.82-14.83-15.07-.6-1.58-13.14,4.31-.93,1.08,10.1,16.63.74Z"/><path class="cls-3" d="M32.49,310.2l-6.65,9.21-.93-.43,3.23-7.94-.93-3.42,4.21-1.34,1.08,3.92ZM41.56,310.2l-6.65,9.21-.93-.43,3.23-7.94-.93-3.42,4.21-1.34,1.08,3.92Z"/><path class="cls-3" d="M57.47,310.66l-1.08,4.31-4.02-.84,2.94,21.51-4.07,2.01-2.94-21.75,3.18-1.96-6.41-1.22,1.51-4.26,10.89,2.2Z"/><path class="cls-3" d="M98.15,309.91l-4.98,21.13-8.64,7.2h-.38l-.98-4.07,6.36-5.46,3.28-14.93-19.6-.69,1.41-4.21,23.52,1.03ZM80.47,347.55l-4.21,1.82-1.53-30.24,4.43-1.91,1.32,30.34Z"/><path class="cls-3" d="M125.33,335.59l-4.16,2.42-11.75-16.27-4.02,14.69-4.76,1.41,4.12-14.88,3.69-2.51-7.2-9.79,4.12-2.32,10.19,13.73,4.88-13.57,4.28,1.12-4.07,11.51-4.28,2.15,8.97,12.3Z"/><path class="cls-3" d="M145.95,336.09l-4.21,1.75v-23.95l-13.52-.74,1.36-4.16,16.37,1.17v25.94Z"/><path class="cls-3" d="M159.9,309.96l-.53,12.63-3.97,2.42.05-11.51-4.95-.69,1.41-4.31,7.99,1.46Z"/><path class="cls-3" d="M186.46,335.87l-4.31,1.77v-23.95l-11.27-.55v22.73l-4.21,1.77v-22.97l2.7-1.63-4.67-.33,1.36-4.12,20.38,1.32v25.96Z"/><path class="cls-3" d="M223.55,336.04l-4.21,1.79v-24.33l-15.89-.5,1.36-4.21,18.73.89v26.37ZM208.69,336.09l-4.12,1.7v-15.96l4.12-1.44v15.7Z"/><path class="cls-3" d="M249.8,309.87l-1.12,4.02-2.66-.19v22.68l-4.07,1.41v-24.09l-13.38-.55,1.41-4.26,19.81.98Z"/><path class="cls-3" d="M263.15,336.04l-4.31,1.56v-23.95l-5.24-.79,1.41-4.31,8.13,1.41v26.08Z"/><path class="cls-3" d="M288.53,336.04l-4.21,1.79v-24.33l-15.89-.5,1.36-4.21,18.73.89v26.37ZM273.68,336.09l-4.12,1.7v-15.96l4.12-1.44v15.7Z"/><path class="cls-3" d="M302.46,309.96l-.53,12.63-3.97,2.42.05-11.51-4.95-.69,1.41-4.31,7.99,1.46Z"/><path class="cls-3" d="M339.09,347.6l-4.31,1.46v-35.86l-9.79-.43,1.36,11.7-3.92,2.66-1.56-12.8,2.68-1.55-4.35-.14,1.51-4.07,18.38,1.12v37.92Z"/><path class="cls-3" d="M369.21,309.72l-4.83,24.69-13.04,4.55-5.38-23.62,2.82-2.44-5.43-.33,1.41-4.23,24.45,1.39ZM364.02,313.5l-13.95-.55,4.31,20.67,6.46-2.15,3.18-17.97Z"/><path class="cls-3" d="M382.64,336.04l-4.31,1.56v-23.95l-5.24-.79,1.41-4.31,8.13,1.41v26.08Z"/><path class="cls-3" d="M396.83,309.96l-.53,12.63-3.97,2.42.05-11.51-4.95-.69,1.41-4.31,7.99,1.46Z"/><path class="cls-3" d="M444.68,310.42l-7.27,22.78-15.38,5.72-6.27-25.31-3.33-.6,1.58-4.31,5.77,1.27,3.68,16.32,4.31-17.35,4.31,1.17-4.26,15.79-4.07,1.56,1.36,5.89,8.97-3.23,5.05-16.46-3.42-.65,1.7-4.26,7.27,1.67Z"/><path class="cls-3" d="M454.47,310.2l-6.65,9.21-.93-.43,3.23-7.94-.93-3.42,4.21-1.34,1.08,3.92ZM463.54,310.2l-6.65,9.21-.93-.43,3.23-7.94-.93-3.42,4.21-1.34,1.08,3.92Z"/><path class="cls-3" d="M491.58,310.75l-7.68,23.81-14.95,5.88-1.17-3.88,8.23-3.18-5.55-19.26-4.55-1.17,1.67-4.35,6.79,1.82,4.95,19.24-1.82,3.18,3.45-1.41,5.14-17.44-5.14-1.22,1.56-4.26,9.07,2.25Z"/><g class="cls-4"><path class="cls-1" d="M734.79,233.06c1.2,8.11,1.65,16.14,1.44,24.05-.15,4.41-.49,8.77-1.04,13.11-4.84,38.34-25.65,68.53-55.19,92.16-3.76-22.55-17.26-42.56-33.94-58.2-21.83-20.47-69.85-42.36-90.86-63.88-42.89-43.91-34.67-99.88-10.17-156.01,3.41-7.8,7.46-15.32,12.14-22.43,4.48-6.81,7.8-14.14,12.41-20.74,10.84-15.52,24.27-29.41,39.11-41.13-3.32,10.1-5.45,20.69-6.29,31.57-.08,1.01-.15,2.02-.21,3.04-.47,8.91-.05,18.01,1.31,27.18,1.16,7.8,2.96,15.35,5.35,22.58,4.25,12.98,10.4,25,18.07,35.78,5.72,8.08,12.29,15.46,19.59,22.04,5.88,5.33,56.53,61.34,61.68,92.71,1.89-12.81,1.94-26.11-.06-39.58-1.16-7.8-2.96-15.35-5.35-22.58-1.73-5.33-3.79-10.47-6.15-15.43,5.37,5.34,10.28,11.15,14.71,17.4,11.95,16.78,20.19,36.57,23.43,58.35Z"/><path class="cls-3" d="M678.9,363.51c-16.72,11.81-36.39,19.97-58.03,23.19-4.42.66-8.83,1.1-13.21,1.3-55.3,2.8-105.89-28.56-128.89-77.13-.71-1.51-1.41-3.07-2.07-4.61-2.77-6.43-5.04-13.12-6.79-20.06-1.1-4.38-1.99-8.84-2.67-13.41-6.55-44.13,9.01-86.44,38.35-115.7-.23,7.9-.17,16.02,1.44,24.03,19.9,99.32,129.84,87.54,164.55,167.8.23.52.57.98.84,1.47,2.4,4.23,4.56,8.61,6.49,13.12Z"/></g></g></svg>